<!-- Generated by IcoMoon.io -->
<svg version="1.1" xmlns="http://www.w3.org/2000/svg" width="1024" height="1024" viewBox="0 0 1024 1024">
<title></title>
<g id="icomoon-ignore">
</g>
<path fill="#7bb32e" d="M1004.416 543.915c-25.984-58.88-75.008-105.643-131.925-134.443-100.437-50.859-225.323-50.56-325.504 1.28-69.589 35.712-127.701 99.712-144.171 177.579-13.568 57.344-1.408 119.083 29.013 169.003 45.269 75.179 127.104 123.179 212.096 138.581 61.568 12.501 125.269 5.077 185.088-12.16 35.925 13.909 67.925 36.437 102.741 53.163-9.003-30.165-18.603-59.989-28.843-89.685 39.083-27.733 74.496-62.336 95.744-105.771 31.744-60.373 33.664-135.296 5.76-197.547zM580.992 140.032c-106.453-59.904-239.019-68.907-353.536-27.52-75.264 27.093-143.36 77.44-185.429 145.92-38.187 61.867-52.48 139.008-34.091 209.792 18.475 78.507 73.003 144.341 139.179 188.288-12.8 36.267-24.96 72.491-36.48 109.013 41.6-21.76 83.2-44.501 124.843-66.603 49.92 16 103.040 23.851 156.16 22.101-14.080-40.235-17.28-83.84-10.88-125.909 9.6-58.496 41.6-112 85.077-151.637 73.643-68.907 177.963-97.963 277.163-90.923-18.603-91.093-82.603-168.064-163.157-212.48h1.152zM654.933 566.229c-8.917 27.819-49.323 36.181-68.907 15.019-21.589-19.584-13.184-60.501 15.147-69.248 31.317-13.227 67.499 22.912 53.76 54.229zM859.52 570.155c-10.923 25.003-48.683 30.848-67.243 11.52-8.917-8.149-11.52-20.437-14.677-31.147 4.437-19.541 17.92-39.808 39.68-40.747 30.080-4.181 57.003 32.981 41.6 60.416h0.64zM554.24 294.784c0.341 41.003-54.4 66.603-85.12 38.784-31.872-22.827-22.827-78.379 14.592-89.856 33.493-13.44 73.088 14.677 70.443 50.56l0.085 0.512zM295.723 305.195c-7.339 35.627-55.083 52.821-83.029 28.928-32.384-22.827-23.296-79.403 14.72-90.923 37.248-14.336 79.573 23.467 68.309 61.995z"></path>
</svg>
