<?xml version="1.0" standalone="no"?>
<!DOCTYPE svg PUBLIC "-//W3C//DTD SVG 20010904//EN"
 "http://www.w3.org/TR/2001/REC-SVG-20010904/DTD/svg10.dtd">
<svg version="1.0" xmlns="http://www.w3.org/2000/svg"
 width="100.000000pt" height="100.000000pt" viewBox="0 0 100.000000 100.000000"
 preserveAspectRatio="xMidYMid meet">

<g transform="translate(0.000000,100.000000) scale(0.100000,-0.100000)"
fill="#000000" stroke="none">
<path d="M0 500 l0 -500 500 0 500 0 0 500 0 500 -500 0 -500 0 0 -500z m517
208 c50 -22 92 -59 104 -92 9 -26 20 -35 53 -44 60 -16 98 -60 103 -119 4 -41
1 -54 -25 -89 -22 -30 -29 -49 -25 -65 5 -19 3 -21 -13 -14 -10 5 -50 11 -89
14 -75 6 -139 36 -150 71 -7 24 -88 32 -127 13 -41 -20 -49 -17 -37 14 8 22 6
30 -14 52 -35 38 -47 65 -47 108 0 63 53 133 115 152 44 13 120 13 152 -1z
m443 3 c0 -6 -4 -12 -8 -15 -5 -3 -9 1 -9 9 0 8 4 15 9 15 4 0 8 -4 8 -9z
m-45 -451 c-3 -5 -12 -10 -18 -10 -7 0 -6 4 3 10 19 12 23 12 15 0z"/>
<path d="M385 695 c-70 -18 -115 -71 -115 -134 0 -48 28 -107 55 -118 10 -3
13 -12 9 -26 -5 -17 -3 -19 12 -12 11 4 39 7 65 6 45 -2 45 -2 46 33 1 19 9
48 19 64 19 33 80 72 113 72 28 0 26 22 -5 60 -46 54 -122 75 -199 55z m15
-85 c0 -13 -7 -20 -19 -20 -22 0 -35 15 -26 30 12 19 45 11 45 -10z m130 0 c0
-13 -7 -20 -19 -20 -22 0 -35 15 -26 30 12 19 45 11 45 -10z"/>
<path d="M585 560 c-66 -15 -115 -66 -115 -119 0 -34 37 -89 72 -107 31 -16
170 -26 161 -11 -2 4 9 23 26 43 23 26 31 44 31 73 0 78 -91 141 -175 121z m3
-77 c-2 -10 -10 -18 -18 -18 -8 0 -16 8 -18 18 -2 12 3 17 18 17 15 0 20 -5
18 -17z m100 0 c-2 -10 -10 -18 -18 -18 -8 0 -16 8 -18 18 -2 12 3 17 18 17
15 0 20 -5 18 -17z"/>
</g>
</svg>
